#!OML:ASF I:\Actors\actors\Patient Classification 2\Patient 1\Session 1\actor1.ASF
:FULLY-SPECIFIED
:DEGREES
526
root 1.16036 17.2825 6.28551 -6.97183 -35.6157 1.87427
lowerback 14.8242 -1.48148 -15.3214
upperback 3.06958 -4.64166 -4.05631
thorax -4.1392 -2.18799 5.03793
lowerneck -8.78923 -8.40753 -9.51208
upperneck 32.128 -15.0338 11.874
head 14.1293 -6.69394 4.01083
rclavicle 3.29983e-014 6.52014e-014
rhumerus 9.51688 -13.1048 -39.6147
rradius 52.0471
rwrist 6.68995
rhand 10.6339 -33.5173
rfingers 7.12502
rthumb 35.7273 -59.9003
lclavicle 3.29983e-014 6.52014e-014
lhumerus -10.685 -62.3924 105.303
lradius 79.2411
lwrist -13.8568
lhand 21.2673 -16.9545
lfingers 7.12502
lthumb 45.7138 6.25826
rfemur 23.8591 -17.1214 5.21517
rtibia -41.4829
rfoot 25.1732 -23.8841
rtoes 35.6965
lfemur 36.7712 13.8395 -24.2967
ltibia -36.8894
lfoot 5.41719 20.3377
ltoes -11.9173
527
root 1.15731 17.2874 6.28851 -6.84557 -35.4123 1.84447
lowerback 14.7581 -1.51449 -15.3238
upperback 3.06662 -4.66935 -4.02858
thorax -4.09786 -2.20378 5.06898
lowerneck -8.78783 -8.38988 -9.49142
upperneck 32.0795 -15.0633 12.038
head 14.128 -6.68731 4.06843
rclavicle 5.68524e-014 1.59028e-014
rhumerus 10.1817 -13.1488 -39.6043
rradius 50.9372
rwrist 6.57135
rhand 10.5816 -33.2429
rfingers 7.12502
rthumb 35.6777 -59.6379
lclavicle 5.68524e-014 1.59028e-014
lhumerus -10.9412 -62.4797 105.459
lradius 79.2023
lwrist -13.7113
lhand 21.1643 -17.0137
lfingers 7.12502
lthumb 45.6182 6.23815
rfemur 23.7787 -17.1345 5.23106
rtibia -41.3714
rfoot 25.071 -23.8269
rtoes 35.7241
lfemur 36.6124 13.6947 -24.3105
ltibia -36.8055
lfoot 5.39399 20.2829
ltoes -11.9221
528
root 1.1545 17.2903 6.29336 -6.74853 -35.2254 1.80311
lowerback 14.732 -1.53529 -15.304
upperback 3.05787 -4.68547 -3.98752
thorax -4.08769 -2.2115 5.10336
lowerneck -8.69876 -8.39148 -9.54031
upperneck 31.938 -15.1035 12.2278
head 14.0761 -6.69613 4.14742
rclavicle -1.51076e-014 6.52014e-014
rhumerus 10.1359 -13.1538 -39.4837
rradius 50.8395
rwrist 6.49126
rhand 10.6425 -32.9111
rfingers 7.12502
rthumb 35.7355 -59.2922
lclavicle -1.51076e-014 6.52014e-014
lhumerus -11.2346 -62.4727 105.753
lradius 79.2611
lwrist -12.9907
lhand 21.9802 -16.6017
lfingers 7.12502
lthumb 46.3751 6.33497
rfemur 23.8156 -17.1583 5.22393
rtibia -41.4222
rfoot 25.0399 -23.7739
rtoes 35.5699
lfemur 36.4912 13.5228 -24.3187
ltibia -36.6882
lfoot 5.31927 20.2646
ltoes -11.9006
529
root 1.15098 17.2982 6.29936 -6.66502 -35.0747 1.73794
lowerback 14.7472 -1.55029 -15.2801
upperback 3.02285 -4.70414 -3.93827
thorax -4.1281 -2.21539 5.14829
lowerneck -8.52592 -8.36074 -9.67628
upperneck 31.7808 -15.1205 12.5251
head 14.0153 -6.69933 4.29273
rclavicle 2.78299e-015 2.54444e-014
rhumerus 9.42293 -13.064 -39.3291
rradius 51.7256
rwrist 6.54999
rhand 10.7172 -32.9997
rfingers 7.12502
rthumb 35.8062 -59.3636
lclavicle 2.78299e-015 2.54444e-014
lhumerus -11.8713 -62.8231 106.312
lradius 78.9212
lwrist -14.9354
lhand 19.1533 -16.6901
lfingers 7.12502
lthumb 43.7455 7.28704
rfemur 23.8625 -17.2758 5.28914
rtibia -41.3967
rfoot 25.8152 -22.8693
rtoes 33.1786
lfemur 36.4243 13.368 -24.2973
ltibia -36.638
lfoot 5.28656 20.3115
ltoes -11.7299
530
root 1.14721 17.3154 6.30514 -6.58938 -34.9563 1.67364
lowerback 14.7563 -1.55975 -15.275
upperback 2.9873 -4.71814 -3.89897
thorax -4.16601 -2.2171 5.19164
lowerneck -8.42194 -8.32258 -9.78112
upperneck 31.7686 -15.1439 12.7824
head 14.0293 -6.70174 4.41693
rclavicle -2.40529e-014 -1.43125e-014
rhumerus 9.09295 -12.9686 -39.2215
rradius 52.0666
rwrist 6.66281
rhand 10.7486 -33.2997
rfingers 7.12502
rthumb 35.836 -59.6563
lclavicle -2.40529e-014 -1.43125e-014
lhumerus -12.2674 -62.6826 106.692
lradius 78.8767
lwrist -14.3928
lhand 20.1081 -16.7998
lfingers 7.12502
lthumb 44.6358 6.84184
rfemur 23.9453 -17.6884 5.48197
rtibia -41.3847
rfoot 28.2152 -19.8383
rtoes 24.8938
lfemur 36.3392 13.2427 -24.2683
ltibia -36.5851
lfoot 5.28556 20.3896
ltoes -11.5756
531
root 1.13853 17.3069 6.30637 -6.52521 -34.9145 1.6154
lowerback 14.7423 -1.53619 -15.316
upperback 2.95454 -4.69027 -3.84239
thorax -4.19092 -2.19903 5.27065
lowerneck -8.52509 -8.34247 -9.67177
upperneck 32.0052 -15.1727 12.6049
head 14.1342 -6.71197 4.32316
rclavicle 1.98785e-014 4.92986e-014
rhumerus 9.17125 -12.9472 -39.1479
rradius 51.8321
rwrist 6.69421
rhand 10.7767 -33.4985
rfingers 7.12502
rthumb 35.8626 -59.8486
lclavicle 1.98785e-014 4.92986e-014
lhumerus -12.7238 -62.5485 107.139
lradius 78.8241
lwrist -14.1357
lhand 20.473 -16.9043
lfingers 7.12502
lthumb 44.9754 6.60496
rfemur 23.8245 -17.2131 5.37175
rtibia -41.2235
rfoot 25.674 -22.7277
rtoes 32.9945
lfemur 36.3489 13.1825 -24.215
ltibia -36.5906
lfoot 5.26325 20.445
ltoes -11.515
532
root 1.12896 17.3047 6.30957 -6.50042 -34.9324 1.58672
lowerback 14.7008 -1.48934 -15.3569
upperback 2.93364 -4.62753 -3.81475
thorax -4.19745 -2.16627 5.31131
lowerneck -8.69806 -8.39642 -9.44981
upperneck 32.3473 -15.2161 12.2216
head 14.2716 -6.7318 4.12208
rclavicle -8.17005e-014 -2.54444e-014
rhumerus 9.22342 -12.9846 -39.1367
rradius 51.6093
rwrist 6.69689
rhand 10.753 -33.5334
rfingers 7.12502
rthumb 35.8402 -59.889
lclavicle -8.17005e-014 -2.54444e-014
lhumerus -13.2498 -62.5834 107.62
lradius 78.7607
lwrist -14.2881
lhand 19.8968 -16.6415
lfingers 7.12502
lthumb 44.4389 7.07569
rfemur 23.7852 -17.014 5.35797
rtibia -41.1459
rfoot 24.701 -23.6107
rtoes 35.4648
lfemur 36.3691 13.1775 -24.1678
ltibia -36.5671
lfoot 5.21406 20.4714
ltoes -11.4311
533
root 1.11989 17.3036 6.31363 -6.53425 -34.9587 1.57276
lowerback 14.6269 -1.451 -15.3396
upperback 2.96929 -4.55845 -3.84502
thorax -4.13565 -2.13956 5.25358
lowerneck -8.72403 -8.43315 -9.34434
upperneck 32.4717 -15.294 12.1524
head 14.3291 -6.75838 4.06377
rclavicle -7.79236e-014 3.33958e-014
rhumerus 9.23899 -13.0413 -39.1949
rradius 51.4522
rwrist 6.77207
rhand 10.7064 -33.4943
rfingers 7.12502
rthumb 35.796 -59.8607
lclavicle -7.79236e-014 3.33958e-014
lhumerus -13.5843 -62.6876 107.84
lradius 78.7486
lwrist -14.2973
lhand 19.5993 -16.505
lfingers 7.12502
lthumb 44.1616 7.31734
rfemur 23.8537 -16.958 5.37373
rtibia -41.1357
rfoot 24.6437 -23.6545
rtoes 35.7023
lfemur 36.4304 13.1543 -24.1277
ltibia -36.5244
lfoot 5.16802 20.488
ltoes -11.5803
534
root 1.11231 17.3057 6.3184 -6.60352 -34.9716 1.57722
lowerback 14.5393 -1.42996 -15.3145
upperback 3.03775 -4.50575 -3.89453
thorax -4.0294 -2.12601 5.1715
lowerneck -8.68779 -8.44116 -9.29894
upperneck 32.4413 -15.3705 12.2982
head 14.3318 -6.77409 4.10319
rclavicle 1.98785e-016 -4.13472e-014
rhumerus 9.25858 -13.0559 -39.2717
rradius 51.3443
rwrist 6.88413
rhand 10.6796 -33.5113
rfingers 7.12502
rthumb 35.7706 -59.8839
lclavicle 1.98785e-016 -4.13472e-014
lhumerus -13.7884 -62.7948 107.928
lradius 78.7714
lwrist -14.3289
lhand 19.5107 -16.5618
lfingers 7.12502
lthumb 44.079 7.29153
rfemur 24.0008 -17.0951 5.41131
rtibia -41.1701
rfoot 25.5754 -22.7329
rtoes 33.3907
lfemur 36.5038 13.083 -24.1205
ltibia -36.4732
lfoot 5.15305 20.5305
ltoes -11.8629
535
root 1.1068 17.3177 6.32382 -6.64894 -34.9649 1.60746
lowerback 14.4899 -1.42325 -15.3388
upperback 3.06075 -4.49013 -3.92008
thorax -3.98045 -2.12318 5.15107
lowerneck -8.65673 -8.4257 -9.24958
upperneck 32.4129 -15.4028 12.4191
head 14.3263 -6.77255 4.13956
rclavicle 4.17448e-014 1.11319e-014
rhumerus 9.29535 -12.936 -39.3071
rradius 51.2328
rwrist 6.91422
rhand 10.7209 -33.774
rfingers 7.12502
rthumb 35.8097 -60.1371
lclavicle 4.17448e-014 1.11319e-014
lhumerus -14.0216 -62.843 108.127
lradius 78.7669
lwrist -14.4075
lhand 19.4777 -16.675
lfingers 7.12502
lthumb 44.0482 7.18991
rfemur 24.1984 -17.586 5.53755
rtibia -41.3074
rfoot 28.1823 -19.6054
rtoes 24.7879
lfemur 36.4915 12.9805 -24.1657
ltibia -36.3904
lfoot 5.1321 20.6014
ltoes -11.9645
536
root 1.09753 17.3053 6.32431 -6.64967 -34.9769 1.58674
lowerback 14.5022 -1.41845 -15.3787
upperback 3.0271 -4.49441 -3.89568
thorax -4.0178 -2.12023 5.20128
lowerneck -8.5974 -8.40016 -9.22255
upperneck 32.4143 -15.393 12.4604
head 14.3141 -6.7649 4.15655
rclavicle 5.30755e-014 5.08889e-014
rhumerus 9.408 -12.728 -39.3321
rradius 51.025
rwrist 6.80968
rhand 10.8536 -34.1489
rfingers 7.12502
rthumb 35.9355 -60.4812
lclavicle 5.30755e-014 5.08889e-014
lhumerus -14.3396 -62.8058 108.463
lradius 78.7337
lwrist -14.5055
lhand 19.3769 -16.732
lfingers 7.12502
lthumb 43.9542 7.16799
rfemur 24.1875 -17.136 5.40318
rtibia -41.3909
rfoot 25.7047 -22.761
rtoes 33.3471
lfemur 36.5178 12.8647 -24.1588
ltibia -36.3278
lfoot 5.02339 20.7002
ltoes -11.8287
